<svg width="33" height="33" viewBox="0 0 33 33" fill="none" xmlns="http://www.w3.org/2000/svg">
    <rect width="33" height="33" rx="10" fill="#648DE5"/>
    <path d="M12.3926 15.5938L11.291 15.4824C11.291 15.6035 11.2695 15.7227 11.2266 15.8398C11.1836 15.9531 11.127 16.0547 11.0566 16.1445C10.9863 16.2344 10.9043 16.3066 10.8105 16.3613C10.7168 16.416 10.6172 16.4434 10.5117 16.4434C10.4258 16.4434 10.3398 16.4336 10.2539 16.4141C10.168 16.3945 10.082 16.3652 9.99609 16.3262C9.90625 16.2832 9.81445 16.2305 9.7207 16.168C9.63086 16.1055 9.53711 16.0332 9.43945 15.9512C9.29883 15.8262 9.1582 15.7168 9.01758 15.623C8.88086 15.5254 8.74023 15.4453 8.5957 15.3828C8.44727 15.3125 8.29297 15.2598 8.13281 15.2246C7.97656 15.1895 7.81055 15.1719 7.63477 15.1719C7.36914 15.1719 7.125 15.2246 6.90234 15.3301C6.68359 15.4355 6.49609 15.582 6.33984 15.7695C6.17969 15.9609 6.05664 16.1895 5.9707 16.4551C5.88477 16.7168 5.8418 17.0059 5.8418 17.3223L6.89648 17.4512C6.89648 17.3301 6.91797 17.2129 6.96094 17.0996C7.00781 16.9863 7.07031 16.8848 7.14844 16.7949C7.22266 16.709 7.30859 16.6406 7.40625 16.5898C7.50391 16.5352 7.60547 16.5078 7.71094 16.5078C7.80859 16.5078 7.90234 16.5195 7.99219 16.543C8.08594 16.5664 8.17969 16.6016 8.27344 16.6484C8.35938 16.6875 8.44531 16.7383 8.53125 16.8008C8.62109 16.8594 8.71094 16.9258 8.80078 17C8.94922 17.1367 9.09375 17.2539 9.23438 17.3516C9.375 17.4492 9.51758 17.5293 9.66211 17.5918C9.80664 17.6582 9.95312 17.707 10.1016 17.7383C10.2539 17.7695 10.416 17.7852 10.5879 17.7852C10.8535 17.7852 11.0977 17.7305 11.3203 17.6211C11.543 17.5117 11.7344 17.3594 11.8945 17.1641C12.0508 16.9727 12.1719 16.7422 12.2578 16.4727C12.3477 16.2031 12.3926 15.9102 12.3926 15.5938ZM14.7363 13.6602H13.3359V20H14.8184V15.2539C14.8379 15.2031 14.8594 15.1562 14.8828 15.1133C14.9062 15.0703 14.9336 15.0332 14.9648 15.002C15.0078 14.959 15.0566 14.9258 15.1113 14.9023C15.166 14.8789 15.2285 14.8672 15.2988 14.8672C15.3613 14.8672 15.4199 14.877 15.4746 14.8965C15.5293 14.9121 15.5781 14.9414 15.6211 14.9844C15.6602 15.0273 15.6914 15.0879 15.7148 15.166C15.7383 15.2441 15.75 15.3438 15.75 15.4648V20H17.1855V15.3242C17.1855 15.2773 17.1855 15.2402 17.1855 15.2129C17.1855 15.1855 17.1855 15.168 17.1855 15.1602C17.2051 15.1172 17.2285 15.0801 17.2559 15.0488C17.2832 15.0137 17.3145 14.9824 17.3496 14.9551C17.3926 14.9277 17.4375 14.9062 17.4844 14.8906C17.5352 14.875 17.5918 14.8672 17.6543 14.8672C17.7129 14.8672 17.7695 14.877 17.8242 14.8965C17.8828 14.9121 17.9336 14.9414 17.9766 14.9844C18.0195 15.0312 18.0527 15.0938 18.0762 15.1719C18.1035 15.25 18.1172 15.3496 18.1172 15.4707V20H19.5996V15.4766C19.5996 15.125 19.5645 14.8281 19.4941 14.5859C19.4277 14.3398 19.334 14.1387 19.2129 13.9824C19.0879 13.8301 18.9414 13.7188 18.7734 13.6484C18.6094 13.5781 18.4316 13.543 18.2402 13.543C18.0879 13.543 17.9473 13.5625 17.8184 13.6016C17.6895 13.6406 17.5742 13.6953 17.4727 13.7656C17.3906 13.8203 17.3145 13.8867 17.2441 13.9648C17.1777 14.0391 17.1172 14.123 17.0625 14.2168C17.0273 14.1191 16.9844 14.0332 16.9336 13.959C16.8867 13.8809 16.8301 13.8145 16.7637 13.7598C16.6777 13.6855 16.5762 13.6309 16.459 13.5957C16.3418 13.5605 16.209 13.543 16.0605 13.543C15.7559 13.543 15.4961 13.623 15.2812 13.7832C15.0703 13.9395 14.9043 14.1543 14.7832 14.4277L14.7363 13.6602ZM20.7598 16.7832V16.9062C20.7598 17.3672 20.8164 17.7949 20.9297 18.1895C21.043 18.5801 21.207 18.918 21.4219 19.2031C21.6328 19.4883 21.8906 19.7129 22.1953 19.877C22.5039 20.0371 22.8516 20.1172 23.2383 20.1172C23.5938 20.1172 23.9062 20.0488 24.1758 19.9121C24.4453 19.7754 24.6797 19.584 24.8789 19.3379L24.9609 20H26.4316V11H24.7969V14.2285C24.6016 14.0098 24.377 13.8418 24.123 13.7246C23.873 13.6035 23.582 13.543 23.25 13.543C22.8555 13.543 22.5039 13.6211 22.1953 13.7773C21.8906 13.9336 21.6309 14.1543 21.416 14.4395C21.2012 14.7246 21.0371 15.0664 20.9238 15.4648C20.8145 15.8633 20.7598 16.3027 20.7598 16.7832ZM22.3887 16.9062V16.7832C22.3887 16.5176 22.4121 16.2695 22.459 16.0391C22.5059 15.8047 22.5801 15.5996 22.6816 15.4238C22.7832 15.252 22.9141 15.1172 23.0742 15.0195C23.2383 14.918 23.4355 14.8672 23.666 14.8672C23.9434 14.8672 24.1738 14.9277 24.3574 15.0488C24.541 15.166 24.6875 15.332 24.7969 15.5469V18.1133C24.6875 18.3242 24.5391 18.4902 24.3516 18.6113C24.168 18.7324 23.9355 18.793 23.6543 18.793C23.4238 18.793 23.2285 18.7441 23.0684 18.6465C22.9082 18.5488 22.7773 18.4141 22.6758 18.2422C22.5742 18.0742 22.5 17.877 22.4531 17.6504C22.4102 17.4199 22.3887 17.1719 22.3887 16.9062Z" fill="white"/>
</svg>
